<svg width="21" height="20" viewBox="0 0 21 20" fill="none" xmlns="http://www.w3.org/2000/svg">
<path d="M10.3896 18.75C15.2221 18.75 19.1396 14.8325 19.1396 10C19.1396 5.16751 15.2221 1.25 10.3896 1.25C5.55716 1.25 1.63965 5.16751 1.63965 10C1.63965 14.8325 5.55716 18.75 10.3896 18.75Z" fill="url(#paint0_linear_37_115)"/>
<path d="M13.6482 12.676L14.0369 10.2063H11.6054V8.60438C11.6054 7.92856 11.9445 7.26944 13.0335 7.26944H14.1396V5.16687C14.1396 5.16687 13.1362 5 12.1773 5C10.1739 5 8.86571 6.18309 8.86571 8.324V10.2063H6.63965V12.676H8.86571V18.6466C9.31259 18.715 9.76977 18.75 10.2355 18.75C10.7013 18.75 11.1585 18.715 11.6054 18.6466V12.676H13.6482Z" fill="white"/>
<defs>
<linearGradient id="paint0_linear_37_115" x1="10.3896" y1="1.25" x2="10.3896" y2="18.6981" gradientUnits="userSpaceOnUse">
<stop stop-color="#18ACFE"/>
<stop offset="1" stop-color="#0163E0"/>
</linearGradient>
</defs>
</svg>
