<svg width="21" height="20" viewBox="0 0 21 20" fill="none" xmlns="http://www.w3.org/2000/svg">
<path d="M15.3896 1.25H5.38965C3.31858 1.25 1.63965 2.92893 1.63965 5V15C1.63965 17.0711 3.31858 18.75 5.38965 18.75H15.3896C17.4607 18.75 19.1396 17.0711 19.1396 15V5C19.1396 2.92893 17.4607 1.25 15.3896 1.25Z" fill="url(#paint0_radial_37_119)"/>
<path d="M15.3896 1.25H5.38965C3.31858 1.25 1.63965 2.92893 1.63965 5V15C1.63965 17.0711 3.31858 18.75 5.38965 18.75H15.3896C17.4607 18.75 19.1396 17.0711 19.1396 15V5C19.1396 2.92893 17.4607 1.25 15.3896 1.25Z" fill="url(#paint1_radial_37_119)"/>
<path d="M15.3896 1.25H5.38965C3.31858 1.25 1.63965 2.92893 1.63965 5V15C1.63965 17.0711 3.31858 18.75 5.38965 18.75H15.3896C17.4607 18.75 19.1396 17.0711 19.1396 15V5C19.1396 2.92893 17.4607 1.25 15.3896 1.25Z" fill="url(#paint2_radial_37_119)"/>
<path d="M14.7646 6.5625C14.7646 7.08025 14.3449 7.5 13.8271 7.5C13.3094 7.5 12.8896 7.08025 12.8896 6.5625C12.8896 6.04473 13.3094 5.625 13.8271 5.625C14.3449 5.625 14.7646 6.04473 14.7646 6.5625Z" fill="white"/>
<path fill-rule="evenodd" clip-rule="evenodd" d="M10.3896 13.125C12.1155 13.125 13.5146 11.7259 13.5146 10C13.5146 8.27412 12.1155 6.875 10.3896 6.875C8.66377 6.875 7.26465 8.27412 7.26465 10C7.26465 11.7259 8.66377 13.125 10.3896 13.125ZM10.3896 11.875C11.4252 11.875 12.2646 11.0356 12.2646 10C12.2646 8.96444 11.4252 8.125 10.3896 8.125C9.35409 8.125 8.51465 8.96444 8.51465 10C8.51465 11.0356 9.35409 11.875 10.3896 11.875Z" fill="white"/>
<path fill-rule="evenodd" clip-rule="evenodd" d="M4.13965 9.75C4.13965 7.64981 4.13965 6.59969 4.54837 5.79754C4.9079 5.09193 5.48157 4.51825 6.18719 4.15873C6.98934 3.75 8.03946 3.75 10.1396 3.75H10.6396C12.7398 3.75 13.79 3.75 14.5921 4.15873C15.2977 4.51825 15.8714 5.09193 16.2309 5.79754C16.6396 6.59969 16.6396 7.64981 16.6396 9.75V10.25C16.6396 12.3502 16.6396 13.4003 16.2309 14.2024C15.8714 14.9081 15.2977 15.4818 14.5921 15.8413C13.79 16.25 12.7398 16.25 10.6396 16.25H10.1396C8.03946 16.25 6.98934 16.25 6.18719 15.8413C5.48157 15.4818 4.9079 14.9081 4.54837 14.2024C4.13965 13.4003 4.13965 12.3502 4.13965 10.25V9.75ZM10.1396 5H10.6396C11.7104 5 12.4382 5.00098 13.0008 5.04694C13.5489 5.09171 13.8291 5.17287 14.0246 5.27248C14.495 5.51217 14.8775 5.89462 15.1171 6.365C15.2168 6.5605 15.298 6.84075 15.3427 7.38881C15.3886 7.95144 15.3896 8.67925 15.3896 9.75V10.25C15.3896 11.3207 15.3886 12.0486 15.3427 12.6112C15.298 13.1593 15.2168 13.4395 15.1171 13.635C14.8775 14.1054 14.495 14.4878 14.0246 14.7275C13.8291 14.8271 13.5489 14.9083 13.0008 14.9531C12.4382 14.999 11.7104 15 10.6396 15H10.1396C9.0689 15 8.34109 14.999 7.77846 14.9531C7.2304 14.9083 6.95015 14.8271 6.75465 14.7275C6.28427 14.4878 5.90182 14.1054 5.66213 13.635C5.56252 13.4395 5.48136 13.1593 5.43659 12.6112C5.39062 12.0486 5.38965 11.3207 5.38965 10.25V9.75C5.38965 8.67925 5.39062 7.95144 5.43659 7.38881C5.48136 6.84075 5.56252 6.5605 5.66213 6.365C5.90182 5.89462 6.28427 5.51217 6.75465 5.27248C6.95015 5.17287 7.2304 5.09171 7.77846 5.04694C8.34109 5.00098 9.0689 5 10.1396 5Z" fill="white"/>
<defs>
<radialGradient id="paint0_radial_37_119" cx="0" cy="0" r="1" gradientUnits="userSpaceOnUse" gradientTransform="translate(7.88965 14.375) rotate(-55.3758) scale(15.9498)">
<stop stop-color="#B13589"/>
<stop offset="0.79309" stop-color="#C62F94"/>
<stop offset="1" stop-color="#8A3AC8"/>
</radialGradient>
<radialGradient id="paint1_radial_37_119" cx="0" cy="0" r="1" gradientUnits="userSpaceOnUse" gradientTransform="translate(7.26465 19.375) rotate(-65.1363) scale(14.1214)">
<stop stop-color="#E0E8B7"/>
<stop offset="0.444662" stop-color="#FB8A2E"/>
<stop offset="0.71474" stop-color="#E2425C"/>
<stop offset="1" stop-color="#E2425C" stop-opacity="0"/>
</radialGradient>
<radialGradient id="paint2_radial_37_119" cx="0" cy="0" r="1" gradientUnits="userSpaceOnUse" gradientTransform="translate(0.702149 1.875) rotate(-8.1301) scale(24.3068 5.19897)">
<stop offset="0.156701" stop-color="#406ADC"/>
<stop offset="0.467799" stop-color="#6A45BE"/>
<stop offset="1" stop-color="#6A45BE" stop-opacity="0"/>
</radialGradient>
</defs>
</svg>
