<svg width="21" height="20" viewBox="0 0 21 20" fill="none" xmlns="http://www.w3.org/2000/svg">
<path d="M10.3896 18.75C15.2221 18.75 19.1396 14.8325 19.1396 10C19.1396 5.16751 15.2221 1.25 10.3896 1.25C5.55716 1.25 1.63965 5.16751 1.63965 10C1.63965 14.8325 5.55716 18.75 10.3896 18.75Z" fill="url(#paint0_linear_37_134)"/>
<path d="M14.7563 6.3805C14.8341 5.87707 14.3555 5.47972 13.9079 5.67625L4.99266 9.5905C4.67167 9.73144 4.69515 10.2177 5.02807 10.3237L6.86658 10.9092C7.21752 11.0209 7.59746 10.9631 7.9039 10.7514L12.049 7.88769C12.174 7.80131 12.3103 7.97906 12.2035 8.08912L9.21971 11.1654C8.93027 11.4638 8.98771 11.9695 9.3359 12.1878L12.6765 14.2827C13.0512 14.5176 13.5332 14.2816 13.6033 13.8288L14.7563 6.3805Z" fill="white"/>
<defs>
<linearGradient id="paint0_linear_37_134" x1="10.3896" y1="1.25" x2="10.3896" y2="18.75" gradientUnits="userSpaceOnUse">
<stop stop-color="#37BBFE"/>
<stop offset="1" stop-color="#007DBB"/>
</linearGradient>
</defs>
</svg>
