<svg width="21" height="20" viewBox="0 0 21 20" fill="none" xmlns="http://www.w3.org/2000/svg">
<path d="M10.39 18.3333C14.9923 18.3333 18.7233 14.6023 18.7233 9.99996C18.7233 5.39759 14.9923 1.66663 10.39 1.66663C5.7876 1.66663 2.05664 5.39759 2.05664 9.99996C2.05664 14.6023 5.7876 18.3333 10.39 18.3333Z" fill="#27AEA1"/>
<path fill-rule="evenodd" clip-rule="evenodd" d="M15.3896 6.79529C15.022 6.95862 14.6264 7.06862 14.2114 7.11829C14.635 6.86429 14.9604 6.46233 15.1133 5.98337C14.7174 6.21867 14.2777 6.389 13.8108 6.48133C13.4364 6.08271 12.9028 5.83337 12.3132 5.83337C11.1803 5.83337 10.2616 6.752 10.2616 7.88492C10.2616 8.04554 10.28 8.20221 10.315 8.35254C8.60977 8.26721 7.09819 7.45025 6.08627 6.209C5.90961 6.512 5.80861 6.86429 5.80861 7.24029C5.80861 7.95192 6.17027 8.57987 6.72123 8.94783C6.38456 8.93717 6.06861 8.84483 5.79161 8.69117V8.71683C5.79161 9.71112 6.49923 10.54 7.43719 10.729C7.26519 10.7757 7.08386 10.801 6.8969 10.801C6.76457 10.801 6.6359 10.788 6.51057 10.764C6.77156 11.579 7.52952 12.1723 8.42711 12.189C7.72515 12.7389 6.84057 13.0672 5.87927 13.0672C5.71327 13.0672 5.54998 13.0575 5.38965 13.0382C6.29761 13.6202 7.37586 13.9602 8.53444 13.9602C12.3079 13.9602 14.3714 10.834 14.3714 8.12321C14.3714 8.03421 14.3697 7.94558 14.3654 7.85792C14.7667 7.56792 15.1146 7.20662 15.3896 6.79529Z" fill="white"/>
</svg>
