<svg width="21" height="20" viewBox="0 0 21 20" fill="none" xmlns="http://www.w3.org/2000/svg">
<g clip-path="url(#clip0_37_130)">
<path fill-rule="evenodd" clip-rule="evenodd" d="M8.32465 12.6124L8.32402 6.95319L13.7278 9.79257L8.32465 12.6124ZM20.1896 5.97253C20.1896 5.97253 19.994 4.58463 19.3946 3.97345C18.634 3.17092 17.7815 3.16714 17.3909 3.12056C14.5921 2.91662 10.394 2.91663 10.394 2.91663H10.3853C10.3853 2.91663 6.18715 2.91662 3.3884 3.12056C2.99715 3.16714 2.14528 3.17092 1.38403 3.97345C0.784651 4.58463 0.589647 5.97253 0.589647 5.97253C0.589647 5.97253 0.389648 7.60276 0.389648 9.23237V10.7606C0.389648 12.3909 0.589647 14.0205 0.589647 14.0205C0.589647 14.0205 0.784651 15.4084 1.38403 16.0196C2.14528 16.8221 3.14465 16.7969 3.58965 16.8806C5.18965 17.0355 10.3896 17.0833 10.3896 17.0833C10.3896 17.0833 14.5921 17.077 17.3909 16.8731C17.7815 16.8259 18.634 16.8221 19.3946 16.0196C19.994 15.4084 20.1896 14.0205 20.1896 14.0205C20.1896 14.0205 20.3896 12.3909 20.3896 10.7606V9.23237C20.3896 7.60276 20.1896 5.97253 20.1896 5.97253Z" fill="#CE1312"/>
</g>
<defs>
<clipPath id="clip0_37_130">
<rect width="20" height="20" fill="white" transform="translate(0.389648)"/>
</clipPath>
</defs>
</svg>
